<?xml version="1.0" encoding="UTF-8"?>
<svg id="Layer_1" data-name="Layer 1" xmlns="http://www.w3.org/2000/svg" viewBox="0 0 2783 741.27">
  <defs>
    <style>
      .cls-1 {
        fill: #fff;
      }
    </style>
  </defs>
  <g>
    <path class="cls-1" d="M2171.39,256.66c25.82-25.61,42.24-61.06,42.97-100.16,.73-38.79-14.01-75.59-41.4-103.5-27.29-27.81-63.46-43.07-101.94-43.07l-215.46-.4c-4.63,0-8.38,3.74-8.38,8.36V480.82c0,4.62,3.74,8.36,8.36,8.36h70.78c4.62,0,8.36-3.74,8.36-8.36v-183.59h84.06v.31h43.7c16.41,0,34.61,8.16,47.47,21.33,6.48,6.59,17.15,20.18,16.83,38.58v123.68c0,4.62,3.74,8.36,8.36,8.36h70.88c4.62,0,8.36-3.74,8.36-8.36v-122.85c.63-36.7-14.22-72.45-41.92-100.68-.31-.31-.73-.73-1.05-.94Zm-236.7-46.94V97.22l136.33,.21c14.74,0,28.75,6.06,39.52,16.94,10.77,10.98,16.52,25.41,16.21,40.46-.52,30.42-24.67,55.2-53.32,55.2h-10.98l-127.76-.31Z"/>
    <path class="cls-1" d="M1431.53,18.18V89.07c0,4.62-3.74,8.36-8.36,8.36h-146.06V481.13c0,4.62-3.74,8.36-8.36,8.36h-70.88c-4.62,0-8.36-3.74-8.36-8.36V97.43h-146.06c-4.62,0-8.36-3.74-8.36-8.36V18.18c0-4.62,3.74-8.36,8.36-8.36h379.72c4.62,0,8.36,3.74,8.36,8.36Z"/>
    <path class="cls-1" d="M2507.34,489.5h-231.57c-4.62,0-8.36-3.74-8.36-8.36v-70.83c0-4.62,3.74-8.36,8.36-8.36h231.57c14.78,0,28.42-6.31,38.39-17.78,10.65-12.24,15.22-28.19,12.87-44.91-3.66-26.09-26.97-45.77-54.25-45.77h-108.84c-39.93,0-78.01-17.45-104.47-47.88-27.13-31.2-39.34-72.94-33.51-114.52,9.69-69.08,70.3-121.17,140.97-121.17h193.81c4.62,0,8.36,3.74,8.36,8.36V89.1c0,4.62-3.74,8.36-8.36,8.36h-193.81c-27.27,0-50.6,19.68-54.26,45.77-2.34,16.71,2.23,32.66,12.87,44.9,9.97,11.47,23.61,17.79,38.4,17.79h108.84c70.67,0,131.28,52.09,140.97,121.17,5.83,41.58-6.39,83.33-33.52,114.52-26.46,30.44-64.54,47.88-104.47,47.88Z"/>
    <path class="cls-1" d="M501.31,736.08l-151.16-368.83-47.94,116.98c-1.29,3.14-4.35,5.19-7.74,5.19H8.36c-4.62,0-8.36-3.74-8.36-8.36v-70.83c0-4.62,3.74-8.36,8.36-8.36H241.34l101.06-246.65c2.84-6.92,12.64-6.92,15.48,0l151.15,368.81,47.91-116.96c1.29-3.14,4.35-5.19,7.74-5.19h338.37c14.79,0,28.43-6.31,38.4-17.78,10.64-12.24,15.22-28.19,12.87-44.91-3.66-26.09-26.98-45.77-54.26-45.77h-107.3c-39.93,0-78.01-17.45-104.48-47.88-27.13-31.2-39.34-72.94-33.51-114.52,9.69-69.08,70.29-121.17,140.97-121.17h187.7c4.62,0,8.36,3.74,8.36,8.36V89.02c0,4.62-3.74,8.36-8.36,8.36h-187.7c-27.27,0-50.6,19.68-54.26,45.77-2.34,16.71,2.23,32.67,12.87,44.91,9.97,11.47,23.61,17.78,38.4,17.78h107.3c70.68,0,131.28,52.09,140.97,121.17,5.83,41.58-6.38,83.33-33.51,114.52-26.46,30.43-64.55,47.88-104.48,47.88h-285.23l-101.04,246.66c-2.84,6.92-12.64,6.92-15.48,0Z"/>
    <path class="cls-1" d="M1437.62,484.8l38.84-79.68h204.5l38.84,79.68c1.4,2.88,4.32,4.7,7.52,4.7h78.82c6.18,0,10.23-6.47,7.52-12.03L1586.23,11.02c-3.05-6.26-11.98-6.26-15.04,0l-227.43,466.45c-2.71,5.56,1.34,12.03,7.52,12.03h78.82c3.2,0,6.12-1.82,7.52-4.7Zm141.09-289.3l59.59,122.11h-119.19l59.59-122.11Z"/>
  </g>
  <g>
    <path class="cls-1" d="M2709.5,83.66V21.62h23.05c4.41,0,8.14,.85,11.19,2.56,3.05,1.71,5.35,3.94,6.92,6.71,1.56,2.77,2.35,5.77,2.35,9.01,0,3.91-1.1,7.46-3.31,10.65-2.21,3.19-5.44,5.42-9.68,6.71l14.92,26.41h-10.98l-14.08-25.32h-10.56v25.32h-9.81Zm22.89-53.48h-13.08v19.95h13.08c3.52,0,6.17-1.02,7.96-3.06,1.79-2.04,2.68-4.34,2.68-6.92s-.89-4.88-2.68-6.92c-1.79-2.04-4.44-3.06-7.96-3.06Z"/>
    <path class="cls-1" d="M2729.34,107.32c-29.59,0-53.66-24.07-53.66-53.66s24.07-53.66,53.66-53.66,53.66,24.07,53.66,53.66-24.07,53.66-53.66,53.66Zm0-99.62c-25.34,0-45.96,20.62-45.96,45.96s20.62,45.96,45.96,45.96,45.96-20.62,45.96-45.96-20.62-45.96-45.96-45.96Z"/>
  </g>
</svg>